PathFileType	4	(X/Y/Z)	C:\Users\u0145647\OneDrive - KU Leuven\KU Leuven\c3d2osim\CP4\T0\Data\Processed\ViconC3D_CP4_2\CP4_T0_09_gapFilled.trc
DataRate	CameraRate	NumFrames	NumMarkers	Units	OrigDataRate	OrigDataStartFrame	OrigNumFrames
100.000000	100.000000	5	47	mm	100.000000	79	631
Frame#	Time	C7			T10			CLAV			STRN			LSHO			RSHO			RBAK			LASI			RASI			LPSI			RPSI			LLAT			RLAT			LF1			LF2			LF3			LTHI			LKNE			LMEK			RF1			RF2			RF3			RTHI			RKNE			RMEK			LT1			LT2			LT3			LTIB			LANK			LMM			RT1			RT2			RT3			RTIB			RANK			RMM			LHEE			LSTL			LLCA			LTOE			LCM5			RHEE			RSTL			RLCA			RTOE			RCM5
		X1	Y1	Z1	X2	Y2	Z2	X3	Y3	Z3	X4	Y4	Z4	X5	Y5	Z5	X6	Y6	Z6	X7	Y7	Z7	X8	Y8	Z8	X9	Y9	Z9	X10	Y10	Z10	X11	Y11	Z11	X12	Y12	Z12	X13	Y13	Z13	X14	Y14	Z14	X15	Y15	Z15	X16	Y16	Z16	X17	Y17	Z17	X18	Y18	Z18	X19	Y19	Z19	X20	Y20	Z20	X21	Y21	Z21	X22	Y22	Z22	X23	Y23	Z23	X24	Y24	Z24	X25	Y25	Z25	X26	Y26	Z26	X27	Y27	Z27	X28	Y28	Z28	X29	Y29	Z29	X30	Y30	Z30	X31	Y31	Z31	X32	Y32	Z32	X33	Y33	Z33	X34	Y34	Z34	X35	Y35	Z35	X36	Y36	Z36	X37	Y37	Z37	X38	Y38	Z38	X39	Y39	Z39	X40	Y40	Z40	X41	Y41	Z41	X42	Y42	Z42	X43	Y43	Z43	X44	Y44	Z44	X45	Y45	Z45	X46	Y46	Z46	X47	Y47	Z47

79	0.78	-2054.7	1404.2	-182.31	-2082.7	1142.8	-213.03	NaN	NaN	NaN	NaN	NaN	NaN	-1960	1360.7	-388.8	-2040.9	1344.1	15.74	-2114.6	1314.2	-71.513	NaN	NaN	NaN	-1975.9	881.74	-59.84	-2074.8	929.01	-254.96	-2103.3	937.58	-186.53	-1929.1	947.31	-318.07	-2046.7	959.54	-40.709	-1825.2	666.97	-319.65	-1856.8	699.48	-329.58	-1852	648.6	-329.32	NaN	NaN	NaN	-1743.7	483.96	-275.22	NaN	NaN	NaN	NaN	NaN	NaN	-2076.4	638.1	-44.906	NaN	NaN	NaN	-2111.1	545.9	-13.268	-2125	422.09	-94.681	NaN	NaN	NaN	-1770	306.75	-301.6	-1732.3	349.47	-279.03	-1779.9	350.19	-300.25	-1703.5	243.62	-306.9	-1775.5	70.82	-275.3	-1769.4	78.42	-187.24	-2234.1	316.6	-77.208	NaN	NaN	NaN	-2224.2	368.12	-75.526	-2260.1	244.31	-42.434	-2397.5	127.66	-97.547	-2384.7	143.45	-183.58	-1827.1	48.14	-232.98	-1768.9	47.893	-191.05	-1768.9	42.393	-269.43	-1652.7	45.05	-226.73	-1660.6	39.683	-270.58	-2444	157.65	-132.79	-2406.9	114.79	-180.36	-2407.1	104.15	-103.31	-2315.1	34.534	-156.13	-2340.5	24.206	-102.05
80	0.79	-2043.3	1404.8	-183.79	-2069.3	1143.1	-212.63	NaN	NaN	NaN	NaN	NaN	NaN	-1947.1	1361.7	-389.31	-2031.2	1346	14.53	-2103.3	1314.8	-73.622	NaN	NaN	NaN	-1963	882.1	-59.581	-2061.5	930.63	-254.26	-2089.9	938.48	-185.73	-1915.2	949.06	-317.46	-2032.6	959.78	-39.897	-1814.7	665.72	-319.93	-1843.5	698.6	-330.58	-1840.3	648.83	-329.63	NaN	NaN	NaN	-1733.3	482.35	-273.71	NaN	NaN	NaN	NaN	NaN	NaN	-2068.8	641.19	-41.39	NaN	NaN	NaN	-2101	546.69	-12.359	-2118.3	425.66	-90.599	NaN	NaN	NaN	-1761.7	305.3	-301.16	-1724.1	347.61	-277.73	-1770.5	349.27	-300.93	-1694.3	240.49	-303	-1774.5	70.478	-275.29	-1768.9	77.728	-187.18	-2225.9	318.62	-76.013	NaN	NaN	NaN	-2215.4	370.19	-74.344	-2253.6	247.46	-40.8	-2391.8	131.69	-96.202	-2378.3	147.55	-181.99	-1826.6	48.591	-233.44	-1768.5	47.171	-191.2	-1768.3	42.059	-269.47	-1651.7	44.131	-226.51	-1659.7	37.96	-270.31	-2437.2	163.43	-131.4	-2400.8	119.05	-178.47	-2402.2	108.54	-101.92	-2313.3	35.06	-155.65	-2338.9	25.397	-101.65
81	0.8	-2031.8	1405.5	-185.11	-2055.9	1143.5	-212.07	NaN	NaN	NaN	NaN	NaN	NaN	-1934.2	1362.9	-389.75	-2021	1347.9	13.265	-2091.7	1315.5	-75.391	-1866.3	884.26	-241.17	-1949.1	882.03	-60.278	-2048.2	932.71	-253.89	-2076.6	939.78	-185.12	-1900.6	950.76	-316.82	-2018.3	960.19	-39.144	-1803	663.98	-319.42	-1835.7	696.81	-328.98	-1832.4	647.43	-328.23	NaN	NaN	NaN	-1724	481.59	-272.72	NaN	NaN	NaN	NaN	NaN	NaN	-2053.4	639.09	-44.086	NaN	NaN	NaN	-2090.3	547.66	-11.658	-2104.9	423.63	-91.991	NaN	NaN	NaN	-1756.6	305.3	-300.77	-1717.2	345.8	-276.39	-1763.2	348.86	-300.46	-1693.2	239.86	-305.28	-1774	70.435	-275.51	-1768.6	77.32	-187.13	-2216.6	320.99	-74.857	NaN	NaN	NaN	-2205.5	372.55	-73.298	-2246	251.09	-39.061	-2385.4	136.51	-94.534	-2371.1	151.97	-180.18	-1826.3	48.933	-233.75	-1768.7	46.967	-191.16	-1767.8	41.701	-269.45	-1650.8	43.376	-226.23	-1659	36.541	-270	-2429.8	169.67	-129.82	-2394.3	124.2	-176.7	-2396.5	113.54	-100.35	-2311.1	35.762	-154.95	-2336.9	26.873	-101.22
82	0.81	-2020.2	1406.2	-186.24	-2042.3	1144	-211.45	NaN	NaN	NaN	NaN	NaN	NaN	-1921.4	1364.6	-390.13	-2010.4	1349.8	12.141	-2079.8	1316.3	-76.985	-1849.8	886.74	-242.05	-1936.6	883.01	-60.012	-2034.9	935.09	-253.82	-2063.3	941.36	-184.68	-1886.9	953.19	-316.38	-2004.1	960.99	-38.434	-1791	662.35	-319.19	-1824.9	695.88	-328.47	-1818.6	645.59	-331.27	NaN	NaN	NaN	-1716.2	478.76	-271.25	NaN	NaN	NaN	NaN	NaN	NaN	-2041.2	639.7	-43.848	NaN	NaN	NaN	-2078.6	548.62	-11.189	-2093.3	424.66	-90.835	NaN	NaN	NaN	-1751.1	304.79	-299.64	-1711.3	345	-275.9	-1757.3	348.8	-299.33	-1689.1	238.46	-304.21	-1772.6	70.13	-275.53	-1768.1	77.105	-187.14	-2203.8	320.36	-76.38	NaN	NaN	NaN	-2194.1	375	-72.284	-2237.2	254.8	-37.41	-2377.8	141.58	-92.773	-2362.9	156.62	-178.22	-1825.6	49.431	-234.27	-1768.4	46.527	-191.24	-1767	41.329	-269.48	-1649.7	42.659	-225.56	-1658.2	35.719	-269.63	-2421.2	175.97	-127.93	-2387.1	129.66	-174.66	-2389.7	118.84	-98.534	-2308.8	37.007	-153.15	-2334	28.853	-100.29
83	0.82	-2008.5	1407.2	-187.16	-2028.7	1144.8	-210.77	NaN	NaN	NaN	NaN	NaN	NaN	-1908.8	1366.4	-390.43	-1999.4	1351.7	11.207	-2067.8	1317.1	-78.241	-1837.6	888.31	-242.07	-1923.8	883.57	-60.589	-2021.7	937.62	-253.77	-2050.1	943.06	-184.39	-1871.8	954.15	-315.9	-1990.1	962.14	-37.893	-1779.2	662.98	-317.57	-1810	697.03	-327.94	-1803.1	647.87	-328.63	NaN	NaN	NaN	-1706.7	478.84	-269.85	NaN	NaN	NaN	NaN	NaN	NaN	-2027.7	639.64	-44.698	NaN	NaN	NaN	-2066.2	549.5	-10.997	-2082.2	426.98	-88.644	NaN	NaN	NaN	-1745.9	304.78	-299.5	-1705	343.89	-275.02	-1751.6	348.84	-298.67	-1684.9	237.06	-303.13	-1771.3	69.92	-275.68	-1767.2	76.577	-187.3	-2194.5	326.01	-72.513	NaN	NaN	NaN	-2181.9	377.48	-71.44	-2227.1	258.53	-35.716	-2368.1	145.57	-90.496	-2353.9	161.11	-176.01	-1824.8	49.887	-234.95	-1768	46.172	-191.32	-1765.9	40.947	-269.49	-1648.5	42.126	-224.97	-1657.3	35.053	-269.27	-2411.5	182.32	-125.59	-2379	135.23	-172.51	-2381.6	124.13	-96.372	-2306.1	38.084	-151.98	-2330.2	30.988	-99.147
